<svg xmlns="http://www.w3.org/2000/svg" viewBox="0 0 160 160" width="160" height="160">
  <rect width="160" height="160" fill="#F5E6C8" rx="4"/>
  <!-- 8-bit pixel heart -->
  <g fill="#C4943A">
    <rect x="30" y="50" width="10" height="10"/>
    <rect x="40" y="40" width="10" height="10"/>
    <rect x="50" y="30" width="10" height="10"/>
    <rect x="60" y="30" width="10" height="10"/>
    <rect x="70" y="40" width="10" height="10"/>
    <rect x="80" y="40" width="10" height="10"/>
    <rect x="90" y="30" width="10" height="10"/>
    <rect x="100" y="30" width="10" height="10"/>
    <rect x="110" y="40" width="10" height="10"/>
    <rect x="120" y="50" width="10" height="10"/>
  </g>
  <g fill="#8B6914">
    <rect x="30" y="60" width="10" height="10"/>
    <rect x="40" y="50" width="10" height="10"/>
    <rect x="50" y="40" width="10" height="10"/>
    <rect x="60" y="40" width="10" height="10"/>
    <rect x="70" y="50" width="10" height="10"/>
    <rect x="80" y="50" width="10" height="10"/>
    <rect x="90" y="40" width="10" height="10"/>
    <rect x="100" y="40" width="10" height="10"/>
    <rect x="110" y="50" width="10" height="10"/>
    <rect x="120" y="60" width="10" height="10"/>
    <rect x="30" y="70" width="10" height="10"/>
    <rect x="40" y="60" width="10" height="10"/>
    <rect x="50" y="50" width="10" height="10"/>
    <rect x="60" y="50" width="10" height="10"/>
    <rect x="70" y="60" width="10" height="10"/>
    <rect x="80" y="60" width="10" height="10"/>
    <rect x="90" y="50" width="10" height="10"/>
    <rect x="100" y="50" width="10" height="10"/>
    <rect x="110" y="60" width="10" height="10"/>
    <rect x="120" y="70" width="10" height="10"/>
    <rect x="40" y="70" width="10" height="10"/>
    <rect x="50" y="60" width="10" height="10"/>
    <rect x="60" y="60" width="10" height="10"/>
    <rect x="90" y="60" width="10" height="10"/>
    <rect x="100" y="60" width="10" height="10"/>
    <rect x="110" y="70" width="10" height="10"/>
    <rect x="50" y="70" width="10" height="10"/>
    <rect x="60" y="70" width="10" height="10"/>
    <rect x="70" y="70" width="10" height="10"/>
    <rect x="80" y="70" width="10" height="10"/>
    <rect x="90" y="70" width="10" height="10"/>
    <rect x="100" y="70" width="10" height="10"/>
    <rect x="60" y="80" width="10" height="10"/>
    <rect x="70" y="80" width="10" height="10"/>
    <rect x="80" y="80" width="10" height="10"/>
    <rect x="90" y="80" width="10" height="10"/>
    <rect x="70" y="90" width="10" height="10"/>
    <rect x="80" y="90" width="10" height="10"/>
  </g>
  <text x="80" y="125" text-anchor="middle" fill="#5C3A0E" font-family="monospace" font-size="11">Coming Soon</text>
</svg>
